
<svg xmlns="http://www.w3.org/2000/svg" version="1.1" xmlns:xlink="http://www.w3.org/1999/xlink" preserveAspectRatio="none" x="0px" y="0px" width="163px" height="283px" viewBox="0 0 163 283">
<defs>
<g id="Layer3_0_FILL">
<path fill="#E5E5E5" stroke="none" d="
M 202 33.05
Q 190.95 22 176.65 15.95 161.8 9.65 145.55 9.65 129.3 9.65 114.5 15.95 100.15 22 89.1 33.05 78.05 44.1 72 58.4 65.75 73.25 65.75 89.5 65.75 102.8 72 119.5 75.75 129.6 85.7 149.6 95.7 169.7 99.4 179.55 105.65 196.15 105.65 209.25
L 185.5 209.25
Q 185.5 195.75 191.75 179.05 195.5 168.95 205.45 149.15 215.45 129.2 219.15 119.35 225.4 102.8 225.4 89.5 225.4 73.25 219.15 58.4 213.05 44.1 202 33.05 Z"/>
</g>

<g id="Layer2_0_FILL">
<path fill="#9A9A9A" stroke="none" d="
M 182.4 109.3
L 182.65 108.45 182.9 108.05 182.85 107.3
Q 183.2 103.75 180 102.6 177.15 101.55 174.9 103.85
L 173.25 106.35 170.3 114.2
Q 169.35 114.1 169 112.3 168.5 109.65 166.2 109.7 164 109.75 163.55 112.15 163.15 114.6 161.1 114.65 158.95 114.65 158.55 112.2 158.15 109.85 156 109.7 153.65 109.65 153.15 112.25 152.75 114.65 150.5 114.65 148.65 114.6 148.15 112.45 147.6 109.7 145.4 109.7 143.2 109.7 142.6 112.35 142.15 114.5 140.3 114.65 138 114.75 137.6 112.35 137.2 109.65 134.85 109.7 132.6 109.75 132.15 112.5 131.75 114.6 129.75 114.65 127.7 114.65 127.3 112.6 126.75 109.6 124.3 109.7 123.05 109.75 122.4 110.6 121.9 111.2 121.65 112.55 121.45 113.8 120.75 114.1
L 117.85 106.45
Q 117.3 105.1 116.2 103.95 114 101.65 111.15 102.65 108.8 103.5 108.35 105.65 108.25 106 108.25 106.6 108.2 108.1 108.75 109.4
L 127 158.25 129.05 209.45 137.85 209.45 136.4 155.9 122.95 120 168.15 120 154.75 155.8 153.25 209.35 162.1 209.35 164.15 158.15 182.4 109.3 Z"/>
</g>

<g id="Layer1_0_MEMBER_0_FILL">
<path fill="#494F56" stroke="none" d="
M 119.25 257.1
Q 115.65 257.1 113.1 259.7 110.5 262.25 110.5 265.9 110.5 269.55 113.1 272.1 115.65 274.65 119.25 274.65
L 120.9 274.65
Q 123.65 282.4 130.3 287.25 137.1 292.15 145.55 292.15 154 292.15 160.85 287.25 167.5 282.4 170.25 274.65
L 171.85 274.65
Q 175.5 274.65 178.05 272.1 180.6 269.55 180.6 265.9 180.6 262.25 178.05 259.7 175.5 257.1 171.85 257.1
L 119.25 257.1 Z"/>
</g>

<g id="Layer1_0_MEMBER_1_FILL">
<path fill="#494F56" stroke="none" d="
M 112.75 231.95
Q 108.2 231.95 105.05 235.15 101.85 238.35 101.85 242.9 101.85 247.45 105.05 250.6 108.2 253.8 112.75 253.8
L 178.35 253.8
Q 182.9 253.8 186.1 250.6 189.3 247.45 189.3 242.9 189.3 238.35 186.1 235.15 182.9 231.95 178.35 231.95
L 112.75 231.95 Z"/>
</g>

<g id="Layer1_0_MEMBER_2_FILL">
<path fill="#494F56" stroke="none" d="
M 107.5 203
Q 102.2 203 98.5 206.7 94.8 210.4 94.8 215.65 94.8 220.95 98.5 224.65 102.2 228.35 107.5 228.35
L 183.65 228.35
Q 188.9 228.35 192.65 224.65 196.35 220.95 196.35 215.65 196.35 210.4 192.65 206.7 188.9 203 183.65 203
L 107.5 203 Z"/>
</g>
</defs>

<g transform="matrix( 1, 0, 0, 1, -65.75,-9.65) ">
<use xlink:href="#Layer3_0_FILL"/>
</g>

<g transform="matrix( 1, 0, 0, 1, -65.75,-9.65) ">
<use xlink:href="#Layer2_0_FILL"/>
</g>

<g transform="matrix( 1, 0, 0, 1, -65.55,-9.65) ">
<use xlink:href="#Layer1_0_MEMBER_0_FILL"/>
</g>

<g transform="matrix( 1, 0, 0, 1, -65.55,-9.65) ">
<use xlink:href="#Layer1_0_MEMBER_1_FILL"/>
</g>

<g transform="matrix( 1, 0, 0, 1, -65.55,-9.65) ">
<use xlink:href="#Layer1_0_MEMBER_2_FILL"/>
</g>
</svg>
