
<svg xmlns="http://www.w3.org/2000/svg" version="1.1" xmlns:xlink="http://www.w3.org/1999/xlink" preserveAspectRatio="none" x="0px" y="0px" width="264px" height="275px" viewBox="0 0 264 275">
<defs>
<g id="Layer6_0_FILL">
<path fill="#FFC836" stroke="none" d="
M 271.7 167.35
Q 267.9 112.2 264.85 58.75
L 37.1 58.75
Q 35.7 98.55 27.15 196.45 22.9 245.45 18.9 286.45
L 283.05 286.45
Q 279.25 277.7 271.7 167.35 Z"/>
</g>

<g id="Layer5_0_FILL">
<path fill="#F09021" stroke="none" d="
M 249.2 58.75
L 249.2 11.5 52.4 11.5 55.3 58.75 249.2 58.75 Z"/>
</g>

<g id="Layer4_0_FILL">
<path fill="#FDB72A" stroke="none" d="
M 67.7 58.75
L 67.7 32.7 37.1 58.75 67.7 58.75 Z"/>
</g>

<g id="Layer4_1_FILL">
<path fill="#FDB72A" stroke="none" d="
M 233.9 32.7
L 233.9 58.75 264.5 58.75 233.9 32.7 Z"/>
</g>

<g id="Layer3_0_FILL">
<path fill="#1EA286" stroke="none" d="
M 90.55 97.95
Q 90.55 93.35 87.3 90.1 84.05 86.85 79.45 86.85 74.85 86.85 71.6 90.1 68.35 93.35 68.35 97.95 68.35 102.55 71.6 105.75 74.85 109 79.45 109 84.05 109 87.3 105.75 90.55 102.5 90.55 97.95 Z"/>
</g>

<g id="Layer3_1_FILL">
<path fill="#1EA286" stroke="none" d="
M 222.8 86.85
Q 218.2 86.85 215 90.1 211.75 93.35 211.75 97.95 211.75 102.55 215 105.75 218.25 109 222.8 109 227.4 109 230.65 105.75 233.9 102.55 233.9 97.95 233.9 93.35 230.65 90.1 227.4 86.85 222.8 86.85 Z"/>
</g>

<g id="Layer2_0_FILL">
<path fill="#F3A621" stroke="none" d="
M 254.1 49.9
L 249.2 11.5 233.9 32.7 254.1 49.9 Z"/>
</g>

<g id="Layer2_1_FILL">
<path fill="#F3A621" stroke="none" d="
M 67.7 32.7
L 52.4 11.5 47.5 49.9 67.7 32.7 Z"/>
</g>

<g id="Layer1_0_FILL">
<path fill="#0C715D" stroke="none" d="
M 222.55 90.7
Q 219.75 90.7 217.75 92.7 215.75 94.7 215.75 97.5
L 215.75 141.85
Q 214.95 169.95 196 189.8 177 209.65 151 209.65 125 209.65 106.05 189.85 87.1 170 86.25 141.95
L 86.25 97.5
Q 86.25 94.7 84.25 92.7 82.25 90.7 79.45 90.7 76.6 90.7 74.6 92.7 72.6 94.7 72.6 97.5
L 72.65 145.2 72.8 145.2
Q 74.85 177.8 97.5 200.45 108.3 211.25 121.85 217.1 135.85 223.2 151 223.2 166.15 223.2 180.15 217.1 193.7 211.2 204.45 200.45 227.1 177.75 229.15 145.2
L 229.35 145.2 229.35 97.5
Q 229.35 94.7 227.35 92.7 225.35 90.7 222.55 90.7 Z"/>
</g>
</defs>

<g transform="matrix( 1, 0, 0, 1, -18.9,-11.5) ">
<use xlink:href="#Layer6_0_FILL"/>
</g>

<g transform="matrix( 1, 0, 0, 1, -18.9,-11.5) ">
<use xlink:href="#Layer5_0_FILL"/>
</g>

<g transform="matrix( 1, 0, 0, 1, -18.9,-11.5) ">
<use xlink:href="#Layer4_0_FILL"/>
</g>

<g transform="matrix( 1, 0, 0, 1, -18.9,-11.5) ">
<use xlink:href="#Layer4_1_FILL"/>
</g>

<g transform="matrix( 1, 0, 0, 1, -18.9,-11.5) ">
<use xlink:href="#Layer3_0_FILL"/>
</g>

<g transform="matrix( 1, 0, 0, 1, -18.9,-11.5) ">
<use xlink:href="#Layer3_1_FILL"/>
</g>

<g transform="matrix( 1, 0, 0, 1, -18.9,-11.5) ">
<use xlink:href="#Layer2_0_FILL"/>
</g>

<g transform="matrix( 1, 0, 0, 1, -18.9,-11.5) ">
<use xlink:href="#Layer2_1_FILL"/>
</g>

<g transform="matrix( 1, 0, 0, 1, -18.9,-11.5) ">
<use xlink:href="#Layer1_0_FILL"/>
</g>
</svg>
